REM DIRINDEX 1\2,1\3,1\4
REM DIRNAME cjc151,folder01,folder02,folder03
TITLE ""
FILE "040 040_TOEFL_3900.mp3" MP3
  TRACK 01 AUDIO
    TITLE "2:cjc151_1726"
    INDEX 01 00:00:00
  TRACK 02 AUDIO
    TITLE "0:"
    INDEX 01 00:01:19
  TRACK 03 AUDIO
    TITLE "3:cjc151_1727"
    INDEX 01 00:02:71
  TRACK 04 AUDIO
    TITLE "0:"
    INDEX 01 00:06:43
  TRACK 05 AUDIO
    TITLE "2:cjc151_1728"
    INDEX 01 00:08:23
  TRACK 06 AUDIO
    TITLE "0:"
    INDEX 01 00:09:22
  TRACK 07 AUDIO
    TITLE "3:cjc151_1729"
    INDEX 01 00:11:01
  TRACK 08 AUDIO
    TITLE "0:"
    INDEX 01 00:14:35
  TRACK 09 AUDIO
    TITLE "2:cjc151_1730"
    INDEX 01 00:16:12
  TRACK 10 AUDIO
    TITLE "0:"
    INDEX 01 00:17:29
  TRACK 11 AUDIO
    TITLE "3:cjc151_1731"
    INDEX 01 00:19:09
  TRACK 12 AUDIO
    TITLE "0:"
    INDEX 01 00:23:08
  TRACK 13 AUDIO
    TITLE "2:cjc151_1732"
    INDEX 01 00:24:61
  TRACK 14 AUDIO
    TITLE "0:"
    INDEX 01 00:25:66
  TRACK 15 AUDIO
    TITLE "3:cjc151_1733"
    INDEX 01 00:27:43
  TRACK 16 AUDIO
    TITLE "0:"
    INDEX 01 00:31:22
  TRACK 17 AUDIO
    TITLE "2:cjc151_1734"
    INDEX 01 00:32:74
  TRACK 18 AUDIO
    TITLE "0:"
    INDEX 01 00:33:73
  TRACK 19 AUDIO
    TITLE "3:cjc151_1735"
    INDEX 01 00:35:51
  TRACK 20 AUDIO
    TITLE "0:"
    INDEX 01 00:39:15
  TRACK 21 AUDIO
    TITLE "2:cjc151_1736"
    INDEX 01 00:40:68
  TRACK 22 AUDIO
    TITLE "0:"
    INDEX 01 00:42:10
  TRACK 23 AUDIO
    TITLE "3:cjc151_1737"
    INDEX 01 00:43:64
  TRACK 24 AUDIO
    TITLE "0:"
    INDEX 01 00:47:68
  TRACK 25 AUDIO
    TITLE "2:cjc151_1738"
    INDEX 01 00:49:45
  TRACK 26 AUDIO
    TITLE "0:"
    INDEX 01 00:50:66
  TRACK 27 AUDIO
    TITLE "3:cjc151_1739"
    INDEX 01 00:52:43
  TRACK 28 AUDIO
    TITLE "0:"
    INDEX 01 00:56:55
  TRACK 29 AUDIO
    TITLE "2:cjc151_1740"
    INDEX 01 00:58:30
  TRACK 30 AUDIO
    TITLE "0:"
    INDEX 01 00:59:39
  TRACK 31 AUDIO
    TITLE "3:cjc151_1741"
    INDEX 01 01:01:19
  TRACK 32 AUDIO
    TITLE "0:"
    INDEX 01 01:05:07
  TRACK 33 AUDIO
    TITLE "2:cjc151_1742"
    INDEX 01 01:06:61
  TRACK 34 AUDIO
    TITLE "0:"
    INDEX 01 01:07:59
  TRACK 35 AUDIO
    TITLE "3:cjc151_1743"
    INDEX 01 01:09:36
  TRACK 36 AUDIO
    TITLE "0:"
    INDEX 01 01:13:00
  TRACK 37 AUDIO
    TITLE "2:cjc151_1744"
    INDEX 01 01:14:53
  TRACK 38 AUDIO
    TITLE "0:"
    INDEX 01 01:15:72
  TRACK 39 AUDIO
    TITLE "3:cjc151_1745"
    INDEX 01 01:17:51
  TRACK 40 AUDIO
    TITLE "0:"
    INDEX 01 01:21:59
  TRACK 41 AUDIO
    TITLE "2:cjc151_1746"
    INDEX 01 01:23:36
  TRACK 42 AUDIO
    TITLE "0:"
    INDEX 01 01:24:61
  TRACK 43 AUDIO
    TITLE "3:cjc151_1747"
    INDEX 01 01:26:40
  TRACK 44 AUDIO
    TITLE "0:"
    INDEX 01 01:30:44
  TRACK 45 AUDIO
    TITLE "2:cjc151_1748"
    INDEX 01 01:32:23
  TRACK 46 AUDIO
    TITLE "0:"
    INDEX 01 01:33:23
  TRACK 47 AUDIO
    TITLE "3:cjc151_1749"
    INDEX 01 01:35:00
  TRACK 48 AUDIO
    TITLE "0:"
    INDEX 01 01:38:28
  TRACK 49 AUDIO
    TITLE "2:cjc151_1750"
    INDEX 01 01:40:05
  TRACK 50 AUDIO
    TITLE "0:"
    INDEX 01 01:41:22
  TRACK 51 AUDIO
    TITLE "3:cjc151_1751"
    INDEX 01 01:43:02
  TRACK 52 AUDIO
    TITLE "0:"
    INDEX 01 01:46:37
  TRACK 53 AUDIO
    TITLE "2:cjc151_1752"
    INDEX 01 01:48:16
  TRACK 54 AUDIO
    TITLE "0:"
    INDEX 01 01:49:28
  TRACK 55 AUDIO
    TITLE "3:cjc151_1753"
    INDEX 01 01:51:05
  TRACK 56 AUDIO
    TITLE "0:"
    INDEX 01 01:55:63
  TRACK 57 AUDIO
    TITLE "2:cjc151_1754"
    INDEX 01 01:57:41
  TRACK 58 AUDIO
    TITLE "0:"
    INDEX 01 01:58:58
  TRACK 59 AUDIO
    TITLE "3:cjc151_1755"
    INDEX 01 02:00:35
  TRACK 60 AUDIO
    TITLE "0:"
    INDEX 01 02:04:59
  TRACK 61 AUDIO
    TITLE "2:cjc151_1756"
    INDEX 01 02:06:36
  TRACK 62 AUDIO
    TITLE "0:"
    INDEX 01 02:07:29
  TRACK 63 AUDIO
    TITLE "3:cjc151_1757"
    INDEX 01 02:09:05
  TRACK 64 AUDIO
    TITLE "0:"
    INDEX 01 02:13:18
  TRACK 65 AUDIO
    TITLE "2:cjc151_1758"
    INDEX 01 02:15:00
  TRACK 66 AUDIO
    TITLE "0:"
    INDEX 01 02:16:01
  TRACK 67 AUDIO
    TITLE "3:cjc151_1759"
    INDEX 01 02:17:53
  TRACK 68 AUDIO
    TITLE "0:"
    INDEX 01 02:21:30
  TRACK 69 AUDIO
    TITLE "2:cjc151_1760"
    INDEX 01 02:23:05
  TRACK 70 AUDIO
    TITLE "0:"
    INDEX 01 02:24:14
  TRACK 71 AUDIO
    TITLE "3:cjc151_1761"
    INDEX 01 02:25:68
  TRACK 72 AUDIO
    TITLE "0:"
    INDEX 01 02:29:39
  TRACK 73 AUDIO
    TITLE "2:cjc151_1762"
    INDEX 01 02:31:16
  TRACK 74 AUDIO
    TITLE "0:"
    INDEX 01 02:32:53
  TRACK 75 AUDIO
    TITLE "3:cjc151_1763"
    INDEX 01 02:34:30
  TRACK 76 AUDIO
    TITLE "0:"
    INDEX 01 02:39:26
  TRACK 77 AUDIO
    TITLE "2:cjc151_1764"
    INDEX 01 02:41:03
  TRACK 78 AUDIO
    TITLE "0:"
    INDEX 01 02:42:04
  TRACK 79 AUDIO
    TITLE "3:cjc151_1765"
    INDEX 01 02:43:61
  TRACK 80 AUDIO
    TITLE "0:"
    INDEX 01 02:47:58
  TRACK 81 AUDIO
    TITLE "2:cjc151_1766"
    INDEX 01 02:49:38
  TRACK 82 AUDIO
    TITLE "0:"
    INDEX 01 02:52:14
  TRACK 83 AUDIO
    TITLE "3:cjc151_1767"
    INDEX 01 02:53:69
  TRACK 84 AUDIO
    TITLE "0:"
    INDEX 01 02:57:72
  TRACK 85 AUDIO
    TITLE "2:cjc151_1768"
    INDEX 01 02:59:50
  TRACK 86 AUDIO
    TITLE "0:"
    INDEX 01 03:00:65
  TRACK 87 AUDIO
    TITLE "3:cjc151_1769"
    INDEX 01 03:02:46
  TRACK 88 AUDIO
    TITLE "0:"
    INDEX 01 03:06:26
